PathFileType	4	(X/Y/Z)	C:\Users\WrightLab\Desktop\Jo\P5V14.trc
DataRate	CameraRate	NumFrames	NumMarkers	Units	OrigDataRate	OrigDataStartFrame	OrigNumFrames
100.00	100.00	       39	19	mm	100.00	1	       575
Frame#	Time	Headset_Front			Headset_Back			Headset_Left			Headset_Right			Left_Shoulder			Right_Shoulder			Sternum			C7			Left Elbow			Right Elbow			Left Wrist			Right Wrist			Left ASIS			Right ASIS			S2			Left Knee			Right Knee			Left Ankle			Right Ankle			
		X1	Y1	Z1	X2	Y2	Z2	X3	Y3	Z3	X4	Y4	Z4	X5	Y5	Z5	X6	Y6	Z6	X7	Y7	Z7	X8	Y8	Z8	X9	Y9	Z9	X10	Y10	Z10	X11	Y11	Z11	X12	Y12	Z12	X13	Y13	Z13	X14	Y14	Z14	X15	Y15	Z15	X16	Y16	Z16	X17	Y17	Z17	X18	Y18	Z18	X19	Y19	Z19	

1	0.000																												-497.64316	1134.09485	-1366.46912	81.89529	921.81024	-1319.77161	-438.06100	1012.16644	-1154.54175	-74.64478	898.22455	-1249.02954	-341.44839	912.85736	-1230.55640				-89.68923	455.30597	-1355.05896	-359.01376	492.66806	-1168.39087				-376.23831	73.58028	-1222.59326	
2	0.010																												-499.86441	1133.61682	-1362.35815	79.85847	921.24121	-1314.17871	-440.27856	1011.21021	-1149.42456	-76.98438	898.30139	-1243.34216	-342.96939	916.21454	-1220.94702				-93.32987	455.13159	-1345.57300	-360.47055	489.39230	-1165.56152				-376.19073	73.47629	-1222.33350	
3	0.020																												-502.30875	1133.47583	-1358.36914	77.42918	921.38629	-1307.97083	-441.78201	1011.03571	-1144.70593	-79.06828	897.60638	-1238.33252	-346.54254	912.49579	-1218.43677				-97.36091	457.66830	-1334.88770	-363.38712	488.68170	-1161.68982				-376.71280	72.53004	-1224.67358	
4	0.030																												-504.75821	1132.52478	-1352.57605	76.41257	921.61383	-1306.50403	-444.60397	1010.63837	-1139.07336	-81.48231	897.72253	-1232.08179	-350.30469	912.28473	-1210.36084				-100.46380	452.66562	-1336.51929	-365.76447	488.23190	-1159.88599				-377.41428	71.62570	-1223.54358	
5	0.040																												-506.46851	1132.54150	-1348.16846	74.04440	921.55695	-1298.76636	-445.68951	1009.71729	-1133.86755	-84.73218	898.23578	-1226.16296	-353.19159	912.20721	-1203.75476				-105.18033	451.98727	-1333.53320	-368.03625	486.80078	-1157.54285				-377.43158	71.56803	-1223.61487	
6	0.050																												-508.57700	1131.94421	-1341.29529	73.87955	921.05096	-1299.85498	-447.80746	1009.93854	-1129.95972	-86.98347	899.12555	-1221.44458	-355.24695	912.24963	-1198.21509				-109.19440	453.61969	-1320.84253	-371.24213	486.45453	-1155.85132				-377.68729	71.06915	-1224.75159	
7	0.060																												-510.70993	1132.83679	-1336.96851	71.54204	921.66895	-1293.13599	-449.86060	1009.71252	-1124.56506	-92.80444	899.28900	-1213.21594	-356.55035	917.72021	-1193.29248				-112.24951	452.22446	-1316.90125	-374.86206	486.58478	-1155.84546				-378.65567	72.06420	-1222.12549	
8	0.070																												-512.12286	1133.22998	-1332.21460	68.68072	923.34155	-1285.48914	-451.51120	1009.93677	-1119.23547	-93.51751	899.88446	-1208.25452	-357.94394	917.70465	-1189.72559				-116.82752	450.35504	-1309.98669	-377.44583	486.75626	-1154.78259				-379.40869	72.25018	-1219.88110	
9	0.080																												-514.01215	1133.47705	-1326.37988	66.91476	923.83850	-1281.83545	-453.35809	1010.40063	-1113.43530	-95.82764	900.67163	-1203.58032	-360.40680	920.76501	-1179.27295				-120.23185	452.80841	-1299.95605	-382.04773	487.19965	-1153.56885				-380.34888	73.57096	-1216.79858	
10	0.090																												-515.95892	1133.74158	-1320.69006	65.91066	924.08527	-1280.33472	-454.82968	1010.88452	-1109.18286	-97.62154	901.77612	-1197.08008	-362.40524	921.07867	-1175.26941				-120.55468	451.95114	-1290.04626	-385.30188	486.95004	-1153.47046				-381.06335	73.47292	-1214.71143	
11	0.100																												-518.65204	1134.25256	-1315.38550	63.79070	925.10400	-1274.75281	-456.19217	1010.97198	-1103.84314	-100.34185	903.67493	-1190.58447	-364.75348	920.95453	-1169.59924				-122.63689	454.46371	-1276.72620	-388.71277	486.09052	-1152.31360				-381.16354	73.22721	-1215.14307	
12	0.110																												-520.31622	1135.00952	-1312.00439	62.27012	925.78601	-1270.77075	-458.09476	1011.55420	-1098.81116	-102.42513	903.97894	-1186.32739	-366.29880	920.82355	-1168.09375				-123.53114	452.33383	-1268.90063	-392.20813	484.63815	-1153.03906				-381.26184	72.97283	-1215.56348	
13	0.120																												-522.60590	1134.83679	-1305.97681	60.01081	926.49213	-1263.72986	-460.08380	1012.48492	-1094.58850	-105.20423	905.40051	-1181.92578	-369.34235	923.34064	-1158.99829				-123.24321	452.06052	-1251.14038	-396.13953	484.47415	-1153.40759				-381.33011	72.76322	-1215.84741	
14	0.130																												-524.68292	1135.66492	-1301.57886	58.75275	927.50305	-1259.92480	-460.94739	1012.27039	-1088.63428	-106.88401	905.85541	-1178.03906	-370.39224	923.47919	-1153.80835				-124.21361	451.79633	-1234.83325	-400.01822	483.77884	-1153.95178				-381.40164	72.58207	-1216.15417	
15	0.140																												-526.32666	1136.11853	-1296.34351	57.40800	928.13751	-1255.30066	-462.44778	1013.17230	-1083.71179	-107.80042	905.92627	-1173.16992	-372.54874	924.80249	-1145.56750				-125.39270	449.73492	-1221.08276	-404.03098	483.21512	-1154.86719				-381.51035	72.30726	-1216.62036	
16	0.150																												-528.11517	1136.09131	-1289.46118	55.96436	930.30634	-1250.15259	-463.99582	1014.02960	-1078.66785	-109.86989	906.32983	-1169.35852	-374.43234	924.75287	-1141.36267				-124.23085	447.34772	-1204.57153	-408.56082	482.83472	-1155.63306				-381.57867	72.12184	-1216.91028	
17	0.160																												-529.30609	1136.52917	-1284.25061	53.83540	931.29718	-1242.40088	-465.42007	1014.58435	-1072.96167	-110.51183	906.89880	-1164.33875	-376.22183	925.04724	-1133.81616				-125.34836	447.46411	-1188.32971	-411.78735	482.00235	-1156.50537				-381.75128	71.76663	-1217.66992	
18	0.170																												-531.04712	1137.50488	-1278.68591	53.06872	931.56964	-1238.30798	-466.60117	1015.12860	-1068.03589	-112.11627	907.65845	-1160.82788	-377.76419	926.06366	-1129.27209				-125.86527	447.49350	-1172.81360	-416.74246	482.24539	-1156.96851				-381.85156	71.43566	-1218.08118	
19	0.180																												-532.41791	1138.21777	-1273.04626	52.43309	931.95941	-1235.43396	-467.10559	1015.02258	-1062.64880	-112.45000	907.88904	-1159.33313	-380.29684	926.88770	-1123.00940				-126.51380	448.72308	-1158.43433	-420.04904	481.00229	-1157.43982				-381.95425	71.22747	-1218.53381	
20	0.190																												-533.71216	1138.47351	-1267.60767	50.94998	934.30402	-1228.32739	-468.09424	1016.17877	-1057.81970	-111.85493	908.69446	-1153.69080	-381.41879	927.00592	-1119.41211				-126.47752	450.29596	-1144.61267	-423.12787	480.76917	-1157.08276				-382.16907	70.74864	-1219.47021	
21	0.200																												-535.24463	1138.94788	-1262.20459	50.29941	935.33179	-1224.66052	-469.08066	1016.94464	-1052.69360	-110.66846	908.25018	-1149.25757	-383.41943	926.81329	-1114.69104				-125.33515	452.62518	-1131.94287	-426.89417	481.32852	-1156.16260				-382.71085	71.52799	-1219.86865	
22	0.210																												-536.67584	1139.94849	-1256.38757	49.04802	936.12225	-1218.23010	-469.93802	1016.96814	-1047.82483	-109.60747	908.60034	-1147.16443	-384.76038	926.64020	-1109.99304				-125.17671	454.85565	-1119.69543	-429.94977	481.72284	-1155.77356				-383.12637	69.42510	-1219.49304	
23	0.220																												-537.66534	1140.45459	-1250.47107	48.38249	936.94165	-1213.56958	-470.00439	1016.64178	-1042.26208	-109.15987	908.46442	-1142.00549	-384.58618	927.62189	-1101.99695				-122.57889	457.80673	-1108.04724	-431.70001	481.28668	-1154.78796				-383.15079	70.73125	-1221.83032	
24	0.230																												-538.85339	1141.24377	-1245.01648	46.98485	939.86707	-1199.66333	-471.59558	1017.46185	-1037.26990	-109.53048	908.72125	-1140.05054	-386.15036	927.44501	-1101.46997				-120.72520	461.11349	-1097.38928	-435.65176	483.41840	-1152.79700				-383.66916	70.52205	-1220.35620	
25	0.240																												-539.70319	1141.19849	-1238.84033	46.54458	939.70569	-1204.09216	-471.54980	1017.52979	-1031.04346	-108.84195	908.12415	-1137.53906	-387.08853	927.18689	-1096.40112				-117.84582	463.48438	-1088.96729	-436.93036	483.15973	-1149.77502				-383.82800	70.28152	-1221.07544	
26	0.250																												-540.73096	1141.81702	-1233.12231	45.02028	941.21136	-1197.19104	-472.25647	1018.12476	-1026.31763	-106.64896	908.22223	-1134.07947	-385.25171	927.58240	-1091.26074				-115.41504	466.10645	-1078.25049	-439.01337	483.77802	-1148.98120				-384.00482	69.94670	-1221.85974	
27	0.260																												-541.41748	1142.47021	-1227.21985	45.19901	941.52155	-1196.05688	-471.80585	1017.95050	-1020.75842	-105.94995	908.47614	-1130.64832	-387.99487	924.48834	-1089.16907				-112.77191	468.13867	-1070.62927	-439.75833	484.32666	-1147.40173				-384.12411	69.78960	-1222.40552	
28	0.270																												-542.50433	1143.20447	-1221.50842	43.49419	943.63745	-1182.63403	-471.52911	1017.97498	-1014.71631	-105.54595	907.93353	-1128.55566	-387.12683	924.38153	-1085.94604				-111.45385	470.08426	-1063.07727	-441.20786	484.58191	-1144.26221				-384.29819	69.51070	-1223.18994	
29	0.280																												-543.35858	1143.95203	-1215.54211	43.18947	944.29712	-1178.55371	-470.94809	1017.95337	-1009.89783	-104.12694	907.59106	-1126.03064	-386.76456	925.33905	-1084.00867				-109.45193	471.58310	-1056.46008	-443.31259	484.80814	-1142.11914				-384.41510	69.33826	-1223.72034	
30	0.290																												-543.72552	1144.79126	-1209.91821	42.21602	945.42499	-1174.77441	-470.90259	1018.80054	-1004.53448	-102.22831	907.92841	-1122.64539	-385.25537	924.20367	-1080.61450				-107.79829	473.47055	-1050.88171	-444.32172	484.59811	-1139.53198				-385.01480	70.64141	-1222.92834	
31	0.300																												-544.37091	1145.14795	-1203.76221	41.76859	948.12347	-1171.99878	-471.76404	1020.00720	-999.31329	-101.72263	907.85468	-1121.04883	-383.23865	923.61493	-1077.13245				-105.64265	474.70078	-1044.89526	-445.61053	484.68741	-1138.43726				-385.08932	70.54549	-1223.26965	
32	0.310																												-544.39307	1145.92627	-1198.53076	41.89561	948.46375	-1169.34888	-470.87012	1019.83838	-994.94012	-100.57323	908.60950	-1115.35840	-380.37274	924.36053	-1075.24719				-103.15289	476.14044	-1039.61902	-445.92630	484.35214	-1135.45972				-385.99554	72.01325	-1220.06091	
33	0.320																												-545.11005	1146.35510	-1192.91931	41.57587	948.89459	-1164.33630	-470.71887	1019.99139	-989.73511	-100.04175	908.08313	-1113.17566	-380.54523	923.27411	-1072.70972				-101.06164	477.12033	-1035.52161	-447.14868	484.18924	-1133.56482				-385.98303	72.08164	-1220.01648	
34	0.330																												-545.35504	1146.61597	-1187.29553	41.00546	949.46301	-1160.35486	-469.64352	1020.40448	-983.94171	-99.14754	909.06067	-1109.25659	-379.84949	923.64954	-1069.75574				-99.44704	477.67191	-1031.14539	-448.62015	484.41620	-1132.22998				-385.93439	72.21703	-1219.81177	
35	0.340																												-545.50916	1147.11938	-1181.83142	40.77065	949.76160	-1158.62329	-468.87723	1020.57648	-978.59277	-96.98373	908.73987	-1106.30139	-378.29617	923.60437	-1068.16223				-98.72240	478.17990	-1026.76306	-448.68945	484.27808	-1129.16724				-385.91095	72.31409	-1219.72083	
36	0.350																												-546.13440	1147.65295	-1176.08496	41.33330	950.26971	-1154.82422	-468.40442	1020.58887	-973.47656	-96.63376	909.35956	-1102.67859	-376.08084	922.71930	-1064.41797				-98.30312	478.66086	-1023.01849	-448.90430	485.08859	-1127.17700				-385.75415	72.63795	-1219.03333	
37	0.360																												-546.05890	1147.25659	-1170.51379	41.87364	952.67902	-1151.55652	-467.86649	1020.41144	-968.76154	-96.06222	909.17639	-1098.84058	-374.99756	921.77466	-1062.03125				-96.72436	479.83426	-1018.87775	-449.02368	484.17041	-1125.04407				-385.53461	73.09466	-1218.07129	
38	0.370																												-546.33783	1147.38940	-1164.92932	42.13554	952.46039	-1147.86340	-467.14301	1020.64856	-963.63885	-95.63194	909.86383	-1096.95361	-373.51489	921.55328	-1058.46826				-95.68662	481.09851	-1013.83728	-448.68289	484.15884	-1122.38684	-146.75172	135.71815	-1254.94885	-384.55856	71.91404	-1221.00537	
39	0.380																												-546.08771	1147.71643	-1159.36804	42.38879	953.43481	-1143.57898	-465.56183	1020.26294	-958.34698	-94.94525	910.51324	-1092.52026	-372.49127	922.18799	-1055.81726				-95.13939	482.03757	-1009.35828	-448.76056	484.05603	-1118.90637	-147.63576	128.89455	-1243.07495	-383.74002	72.17480	-1222.62390	
